<svg xmlns="http://www.w3.org/2000/svg" width="5692" height="3200" viewBox="0 0 5692 3200">
  <defs>
    <style>
      .cls-1 {
        fill: #f30;
        fill-rule: evenodd;
      }
    </style>
  </defs>
  <path id="APKA" class="cls-1" d="M748.8,412.768L1007.94,2025.82H492.524ZM466.753,2186.49H1035.14l123.12,712.67h220.49L891.968,161.425H608.492L121.713,2899.16H340.764ZM1872.68,355.5h409.47q171.81,0,256.27,132.034,84.465,132.06,84.47,415.194,0,303.858-78.74,446.212-78.75,142.395-262,140.78l-409.47-1.59V355.5Zm0,2543.66V1682.21h383.7q136.005,0,240.53-45.34,104.49-45.33,168.22-117.72,63.69-72.36,104.51-177.37,40.815-104.985,55.84-211.57,15.03-106.56,15.03-232.255,0-122.477-17.89-228.277a823.683,823.683,0,0,0-60.85-201.233Q2718.825,373,2652.96,306.185T2486.88,200.4q-100.23-38.962-229.07-38.974H1655.07V2899.16h217.61Zm1437.43,0V1933.55l240.53-480.41L4077.5,2899.16h230.51L3682.35,1290.88,4192.04,161.425H3967.26L3310.11,1601.08V161.425H3092.49V2899.16h217.62ZM4982.34,412.768L5241.48,2025.82H4726.06ZM4700.29,2186.49h568.39l123.12,712.67h220.49L5125.51,161.425H4842.03L4355.25,2899.16H4574.3Z"/>
</svg>
