<svg xmlns="http://www.w3.org/2000/svg" width="13281.52" height="7466.48" viewBox="0 0 23717 13333">
  <defs>
    <style>
      .cls-1 {
        fill: #f30;
        fill-rule: evenodd;
      }
    </style>
  </defs>
  <path id="Apka" class="cls-1" d="M4424.28,8796.06H3804.64v154.97H6658.49V8796.06H6257.03L4057.73,3192.57H3342.08L1116.6,8796.06H706.414v154.97H2041.7V8796.06H1387.15l672.01-1761.8H3787.18ZM2958.08,4717.83l759.28,2136.99H2137.7Zm6885.83,619.89c296.69,0,401.49,269.16,401.49,1419.22v424.14c0,1133.75-87.3,1614.98-514.94,1614.98-384.01,0-567.28-399.67-567.28-840.12V6463.31C9163.18,5753.7,9486.09,5337.72,9843.91,5337.72Zm-698.19-269.17H7077.33v146.82h462.55V10745.5h-480v146.8H10289v-146.8H9163.18V8632.93c157.09,252.85,375.28,399.67,968.72,399.67,1186.9,0,1797.9-619.89,1797.9-2014.65,0-1386.6-602.2-2030.96-1579.7-2030.96-680.73,0-1012.37,318.1-1204.38,725.92V5068.55ZM15394.5,8951.03h2426.2V8804.22h-314.2L15996.7,6039.17l1038.6-823.8h610.9V5068.55H15926.9v146.82h820.4L14783.6,6740.63l-139.6,48.94V2833.68H12505.8V2980.5h514.9V8804.22h-480v146.81h2504.7V8804.22H14644V6952.7l165.8-40.78,986.2,1892.3h-401.5v146.81Zm4826.3-1916.77c-1248,0-2007.3,187.6-2007.3,1011.4,0,815.65,680.8,986.94,1291.7,986.94s864-212.07,1003.6-603.58c104.8,399.67,497.5,603.58,1204.4,603.58,750.6,0,1073.5-277.32,1117.1-1256.1l-130.9-8.15c-43.6,685.14-192,840.11-349.1,840.11-148.4,0-253.1-89.72-253.1-424.14V6528.56c0-1182.69-462.5-1541.57-1832.7-1541.57-1187,0-1824.1,318.1-1824.1,1003.24,0,399.67,209.5,676.99,750.6,676.99,436.4,0,768-252.85,768-636.2,0-154.98-26.2-261.01-69.8-367.04H19671c-34.9-89.73-52.4-171.29-52.4-236.54,0-261.01,253.1-326.26,410.2-326.26,349.1,0,445.1,269.16,445.1,1305.03v628.05h-253.1Zm-122.2,1672.08c-165.8,0-226.9-81.57-226.9-668.83v-130.5c0-497.55,174.6-742.24,541.1-742.24h61.1v758.55C20473.9,8445.33,20264.5,8706.34,20098.6,8706.34Z"/>
</svg>
