<svg xmlns="http://www.w3.org/2000/svg" width="1366" height="768" viewBox="0 0 1366 768">
  <defs>
    <style>
      .cls-1 {
        fill: #f30;
        fill-rule: evenodd;
      }
    </style>
  </defs>
  <path id="znaker" class="cls-1" d="M189.012,546.03V510.376H46.261l13.574-21.228,125.517-209.6V243.892H25.214v35.654H149.969q-10.98,15.255-23.182,35.861L12.251,508.933v37.1H189.012Zm74.046,0V308.606L380.492,546.03h30.35V243.892H382.475V481.11L265.041,243.892h-30.35V546.03h28.367Zm220.934,0,24.555-91.507h93.489l26.08,91.507h33.705L570.314,243.892H538.439L452.575,546.03h31.417Zm57.65-212.692a494.582,494.582,0,0,0,12.048-57.707q5.182,24.528,15.861,62.653l23.335,83.676h-75.8ZM735.219,546.03v-104.7l36.6-48.227L851.433,546.03h39.043L792.563,366.313l93.795-122.421h-40.11L735.219,393.724V243.892H705.631V546.03h29.588Zm368.811,0V510.376H966.771V407.533H1090.46V372.084H966.771V279.546H1098.85V243.892H937.184V546.03H1104.03Zm92.31,0V411.861h34.32q11.43,0,16.47,1.443a39.933,39.933,0,0,1,13.5,8.037q6.63,5.774,15.02,20.2T1297,483.171l29.59,62.859h37.21L1324.91,463.8q-11.6-24.114-24.56-40.189-6.09-7.421-17.84-15.046,32.175-5.975,47.58-28.029t15.41-54.2q0-24.934-9.31-45.548t-24.85-28.751q-15.57-8.139-45.45-8.14h-99.14V546.03h29.59Zm0-268.751h70.77q24.855,0,36.37,13.809T1315,326.331a62.192,62.192,0,0,1-5.95,27.1q-5.955,12.472-17.39,18.137t-31.72,5.668h-63.6V277.279Z"/>
</svg>
